:SAMPLES-PER-SECOND 30
:FULLY-SPECIFIED
:DEGREES
156
root  62.2251 24.62 0.678086 101.064 -85.574 -129.72
RightUpLeg  -50.0485 -14.2576 5.4529
RightLeg  81.6242 -1.89425 -18.7656
RightFoot  -5.50615 0.264992 -5.92034
RightToes  0.000482159 0.542163 -0.142577
Spine  42.2148 -1.76936 5.29812
Spine1  3.01668 -1.15408 2.09992
HEad  -25.7869 5.81766 -7.3934
LeftShoulder1  9.00876 -13.6686 -45.7439
LeftArm  -12.5749 14.0606 -23.976
LeftForeArm  29.5197 -12.6451 -4.13344
LeftHand  -0.25398 0.0180481 5.50724
RightShoulder  5.03344 9.1725 33.7618
RightArm  -16.9538 -16.6182 37.5342
RightForeArm  8.98494 13.2989 4.59707
RightHand  -1.5209 5.03177 -17.1882
LeftUpLeg  -51.7393 4.97097 2.00559
LeftLeg  76.3771 0.838461 5.36523
LeftFoot  2.32666 -0.371141 3.00092
LeftToes  1.06246e-005 4.65855e-005 -8.18503e-006
157
root  62.1912 24.6165 0.670149 104.181 -85.4462 -132.742
RightUpLeg  -50.1671 -14.3494 5.62239
RightLeg  81.6748 -1.84874 -18.5398
RightFoot  -5.61616 0.270065 -6.14945
RightToes  0.000482159 0.542163 -0.142577
Spine  42.2187 -1.78609 5.1728
Spine1  2.91008 -1.22498 2.12844
HEad  -24.9998 6.20416 -7.80914
LeftShoulder1  8.97399 -13.6562 -45.5954
LeftArm  -12.0963 13.8423 -24.2352
LeftForeArm  29.7022 -13.7444 -4.09101
LeftHand  -0.25398 0.0180481 5.50724
RightShoulder  5.1008 9.32089 33.8269
RightArm  -16.4012 -16.1864 37.6366
RightForeArm  8.59131 14.1616 4.6516
RightHand  -1.5962 5.49659 -17.2789
LeftUpLeg  -51.8348 5.27234 2.10755
LeftLeg  76.5317 0.818085 5.33919
LeftFoot  2.18205 -0.373237 3.03459
LeftToes  1.06246e-005 4.65855e-005 -8.18503e-006
158
root  62.1614 24.6103 0.668764 106.859 -85.3341 -135.382
RightUpLeg  -50.2379 -14.4885 5.73816
RightLeg  81.7369 -1.79305 -18.2583
RightFoot  -5.69633 0.276699 -6.3816
RightToes  0.000482159 0.542163 -0.142577
Spine  42.2382 -1.79569 5.12716
Spine1  2.83391 -1.24324 2.12363
HEad  -24.1583 6.51333 -8.25937
LeftShoulder1  8.99527 -13.7382 -45.4823
LeftArm  -11.391 13.2951 -24.4132
LeftForeArm  30.0546 -14.9318 -4.03032
LeftHand  -0.25398 0.0180481 5.50724
RightShoulder  5.14525 9.39213 33.951
RightArm  -15.6836 -15.4492 37.5892
RightForeArm  7.98242 15.2583 4.67795
RightHand  -1.64115 5.69559 -17.4455
LeftUpLeg  -51.876 5.54382 2.16301
LeftLeg  76.6702 0.807337 5.35235
LeftFoot  2.06468 -0.384688 3.16623
LeftToes  1.06246e-005 4.65855e-005 -8.18503e-006
159
root  62.1363 24.6055 0.669949 107.858 -85.3066 -136.377
RightUpLeg  -50.2687 -14.7839 5.77554
RightLeg  81.8102 -1.73396 -17.973
RightFoot  -5.7915 0.282863 -6.63092
RightToes  0.000482159 0.542163 -0.142577
Spine  42.1993 -1.79964 5.06286
Spine1  2.82182 -1.30922 2.29812
HEad  -23.2045 6.66988 -8.68622
LeftShoulder1  9.04531 -13.8353 -45.4791
LeftArm  -10.7522 12.3605 -24.557
LeftForeArm  30.4616 -15.9715 -3.94493
LeftHand  -0.25398 0.0180481 5.50724
RightShoulder  5.13554 9.37477 33.9294
RightArm  -14.9073 -14.3916 37.5845
RightForeArm  7.3209 16.418 4.67028
RightHand  -1.68622 5.80123 -17.7465
LeftUpLeg  -51.8859 5.68844 2.14064
LeftLeg  76.7653 0.801302 5.36808
LeftFoot  2.01888 -0.406745 3.36752
LeftToes  1.06246e-005 4.65855e-005 -8.18503e-006
160
root  62.1142 24.6016 0.667854 107.843 -85.3503 -136.363
RightUpLeg  -50.2932 -15.197 5.76908
RightLeg  81.8951 -1.67565 -17.7185
RightFoot  -5.9409 0.283368 -6.84562
RightToes  0.000482159 0.542163 -0.142577
Spine  42.1507 -1.78016 4.92627
Spine1  2.73136 -1.43024 2.67839
HEad  -22.0702 6.75759 -9.12489
LeftShoulder1  9.09859 -13.9061 -45.564
LeftArm  -10.0736 11.1734 -24.6259
LeftForeArm  30.6931 -16.9165 -3.86342
LeftHand  -0.25398 0.0180481 5.50724
RightShoulder  5.09615 9.38337 33.6
RightArm  -14.0713 -13.2086 37.7714
RightForeArm  6.51574 17.5879 4.6543
RightHand  -1.70387 5.75489 -17.9966
LeftUpLeg  -51.9009 5.76889 2.08127
LeftLeg  76.8541 0.781831 5.3132
LeftFoot  1.99637 -0.420945 3.49526
LeftToes  1.06246e-005 4.65855e-005 -8.18503e-006
161
root  62.0977 24.5982 0.662017 108.065 -85.3999 -136.585
RightUpLeg  -50.3174 -15.5446 5.75461
RightLeg  81.9676 -1.62754 -17.5095
RightFoot  -6.08633 0.278837 -6.95755
RightToes  0.000482159 0.542163 -0.142577
Spine  42.27 -1.74052 4.77779
Spine1  2.35193 -1.52459 3.06484
HEad  -20.7925 6.88902 -9.59916
LeftShoulder1  9.16059 -13.9757 -45.6966
LeftArm  -9.12819 10.0531 -24.5354
LeftForeArm  30.576 -18.1273 -3.74529
LeftHand  -0.25398 0.0180481 5.50724
RightShoulder  5.04706 9.43714 33.0587
RightArm  -13.1512 -12.099 38.0933
RightForeArm  5.60847 18.8391 4.6335
RightHand  -1.63233 5.33777 -17.901
LeftUpLeg  -51.9124 5.88426 2.0303
LeftLeg  76.9359 0.752527 5.20437
LeftFoot  1.94167 -0.422629 3.52005
LeftToes  1.06246e-005 4.65855e-005 -8.18503e-006
162
root  62.0901 24.5973 0.654149 108.67 -85.4227 -137.178
RightUpLeg  -50.3429 -15.7149 5.75486
RightLeg  81.9977 -1.60184 -17.3729
RightFoot  -6.15557 0.275789 -6.99411
RightToes  0.000482159 0.542163 -0.142577
Spine  42.5725 -1.72541 4.72626
Spine1  1.72897 -1.54002 3.22717
HEad  -19.5269 7.0051 -9.92579
LeftShoulder1  9.21329 -14.0431 -45.7861
LeftArm  -8.18595 9.10632 -24.3786
LeftForeArm  30.3826 -19.683 -3.56037
LeftHand  -0.25398 0.0180481 5.50724
RightShoulder  4.98103 9.42453 32.5864
RightArm  -12.1761 -11.0212 38.3814
RightForeArm  4.85944 20.1788 4.61191
RightHand  -1.52842 4.82851 -17.5967
LeftUpLeg  -51.9185 6.03183 1.99903
LeftLeg  76.9686 0.73234 5.11773
LeftFoot  1.88301 -0.421809 3.53067
LeftToes  1.06246e-005 4.65855e-005 -8.18503e-006
163
root  62.0892 24.6001 0.64262 109.168 -85.4319 -137.628
RightUpLeg  -50.3941 -15.752 5.78059
RightLeg  81.9901 -1.59833 -17.333
RightFoot  -6.16814 0.27593 -7.01387
RightToes  0.000482159 0.542163 -0.142577
Spine  42.8291 -1.74002 4.77104
Spine1  1.19663 -1.50136 3.17134
HEad  -18.475 6.96297 -9.92375
LeftShoulder1  9.22463 -14.0791 -45.7472
LeftArm  -7.76641 8.11374 -24.3515
LeftForeArm  30.5615 -21.2305 -3.39778
LeftHand  -0.25398 0.0180481 5.50724
RightShoulder  4.89906 9.30634 32.3021
RightArm  -11.2293 -9.83505 38.5774
RightForeArm  4.24926 21.552 4.63196
RightHand  -1.53212 4.79252 -17.6928
LeftUpLeg  -51.953 6.17062 1.97973
LeftLeg  76.9472 0.723343 5.06075
LeftFoot  1.86959 -0.425474 3.57598
LeftToes  1.06246e-005 4.65855e-005 -8.18503e-006
164
root  62.0907 24.6043 0.626557 109.577 -85.4512 -137.963
RightUpLeg  -50.4738 -15.7342 5.81186
RightLeg  81.9768 -1.60735 -17.3706
RightFoot  -6.18149 0.275337 -7.00822
RightToes  0.000482159 0.542163 -0.142577
Spine  42.8865 -1.72904 4.80815
Spine1  0.986715 -1.45172 3.10613
HEad  -17.8043 6.80989 -9.7389
LeftShoulder1  9.21727 -14.1039 -45.6427
LeftArm  -7.8364 6.9437 -24.4458
LeftForeArm  31.0473 -22.5608 -3.35153
LeftHand  -0.25398 0.0180481 5.50724
RightShoulder  4.83538 9.21072 32.0885
RightArm  -10.4357 -8.5872 38.7048
RightForeArm  3.59288 22.9343 4.76324
RightHand  -1.65531 5.18209 -18.397
LeftUpLeg  -52.0175 6.30012 1.95743
LeftLeg  76.9094 0.715334 4.9954
LeftFoot  1.88719 -0.432443 3.63132
LeftToes  1.06246e-005 4.65855e-005 -8.18503e-006
165
root  62.0913 24.6069 0.611272 110.082 -85.4911 -138.409
RightUpLeg  -50.5462 -15.6879 5.8111
RightLeg  81.9767 -1.61595 -17.4332
RightFoot  -6.19301 0.273842 -6.98158
RightToes  0.000482159 0.542163 -0.142577
Spine  42.8629 -1.69549 4.82114
Spine1  0.970879 -1.40711 3.08818
HEad  -17.5481 6.75791 -9.63945
LeftShoulder1  9.24571 -14.1756 -45.5963
LeftArm  -7.98167 5.80529 -24.456
LeftForeArm  31.5364 -23.8339 -3.45576
LeftHand  -0.25398 0.0180481 5.50724
RightShoulder  4.82581 9.25005 31.8954
RightArm  -9.8676 -7.45459 38.7159
RightForeArm  3.17435 24.2596 5.0214
RightHand  -1.73854 5.35145 -19.0032
LeftUpLeg  -52.0666 6.4099 1.91263
LeftLeg  76.8791 0.710109 4.9436
LeftFoot  1.89572 -0.436853 3.67097
LeftToes  1.06246e-005 4.65855e-005 -8.18503e-006
166
root  62.0887 24.6069 0.603195 110.491 -85.547 -138.778
RightUpLeg  -50.602 -15.6224 5.77399
RightLeg  81.99 -1.61772 -17.4855
RightFoot  -6.17764 0.275265 -7.00478
RightToes  0.000482159 0.542163 -0.142577
Spine  42.9244 -1.73228 4.92703
Spine1  0.877709 -1.36486 2.91935
HEad  -17.5535 6.84081 -9.62041
LeftShoulder1  9.30888 -14.3041 -45.576
LeftArm  -8.01688 4.93825 -24.3328
LeftForeArm  32.0364 -25.1065 -3.6876
LeftHand  -0.25398 0.0180481 5.50724
RightShoulder  4.86145 9.36532 31.8327
RightArm  -9.37595 -6.49088 38.5949
RightForeArm  3.33645 25.3586 5.26312
RightHand  -1.68141 5.05415 -18.8929
LeftUpLeg  -52.0955 6.45911 1.84016
LeftLeg  76.858 0.713187 4.95386
LeftFoot  1.89229 -0.439659 3.69409
LeftToes  1.06246e-005 4.65855e-005 -8.18503e-006
167
root  62.0805 24.6062 0.601659 110.731 -85.6042 -138.956
RightUpLeg  -50.6792 -15.5533 5.73152
RightLeg  82.0167 -1.61402 -17.5268
RightFoot  -6.16349 0.279533 -7.08901
RightToes  0.000482159 0.542163 -0.142577
Spine  43.069 -1.86355 5.16118
Spine1  0.604672 -1.31992 2.529
HEad  -17.591 6.85349 -9.5351
LeftShoulder1  9.3607 -14.4387 -45.4823
LeftArm  -7.88195 4.30419 -24.2591
LeftForeArm  32.5173 -26.0857 -3.87078
LeftHand  -0.25398 0.0180481 5.50724
RightShoulder  4.89797 9.43996 31.8975
RightArm  -8.94213 -5.64003 38.489
RightForeArm  3.86521 26.0776 5.39809
RightHand  -1.6024 4.75182 -18.5493
LeftUpLeg  -52.1535 6.4548 1.75657
LeftLeg  76.8509 0.721319 5.00473
LeftFoot  1.89012 -0.441737 3.70954
LeftToes  1.06246e-005 4.65855e-005 -8.18503e-006
168
root  62.0685 24.6062 0.600457 111.183 -85.6563 -139.311
RightUpLeg  -50.7909 -15.4815 5.69605
RightLeg  82.0553 -1.6064 -17.568
RightFoot  -6.18642 0.280961 -7.14885
RightToes  0.000482159 0.542163 -0.142577
Spine  43.2175 -1.97177 5.36975
Spine1  0.249072 -1.26996 2.18302
HEad  -17.5602 6.72244 -9.45116
LeftShoulder1  9.39277 -14.5342 -45.3932
LeftArm  -7.66334 3.73363 -24.3209
LeftForeArm  32.9191 -26.4833 -3.935
LeftHand  -0.25398 0.0180481 5.50724
RightShoulder  4.91141 9.47092 31.9108
RightArm  -8.63519 -4.90686 38.5273
RightForeArm  4.13566 26.4127 5.46041
RightHand  -1.62303 4.78589 -18.7169
LeftUpLeg  -52.2502 6.46071 1.67377
LeftLeg  76.8583 0.72701 5.04067
LeftFoot  1.88953 -0.444144 3.72975
LeftToes  1.06246e-005 4.65855e-005 -8.18503e-006
169
root  62.0572 24.6078 0.596059 112.065 -85.7088 -140.094
RightUpLeg  -50.9034 -15.4011 5.6548
RightLeg  82.0923 -1.5989 -17.6061
RightFoot  -6.22034 0.279794 -7.15341
RightToes  0.000482159 0.542163 -0.142577
Spine  43.33 -1.96422 5.42583
Spine1  -0.0249231 -1.21677 2.11098
HEad  -17.5644 6.66268 -9.5306
LeftShoulder1  9.42953 -14.5831 -45.4496
LeftArm  -7.24861 3.1643 -24.4324
LeftForeArm  33.0464 -26.3438 -3.89878
LeftHand  -0.25398 0.0180481 5.50724
RightShoulder  4.91719 9.5225 31.8047
RightArm  -8.32179 -4.28928 38.624
RightForeArm  3.98528 26.3978 5.46501
RightHand  -1.69021 4.96955 -19.1381
LeftUpLeg  -52.337 6.50776 1.58871
LeftLeg  76.8593 0.730032 5.05854
LeftFoot  1.87126 -0.447177 3.76065
LeftToes  1.06246e-005 4.65855e-005 -8.18503e-006
170
root  62.0468 24.6126 0.590575 113.097 -85.7554 -141.028
RightUpLeg  -51.011 -15.3217 5.61883
RightLeg  82.1139 -1.59442 -17.6277
RightFoot  -6.228 0.279201 -7.1612
RightToes  0.000482159 0.542163 -0.142577
Spine  43.3729 -1.90473 5.40961
Spine1  -0.110092 -1.17077 2.18173
HEad  -17.7154 6.83188 -9.69451
LeftShoulder1  9.46128 -14.5996 -45.5652
LeftArm  -6.52189 2.63652 -24.5721
LeftForeArm  32.8599 -25.8537 -3.80427
LeftHand  -0.25398 0.0180481 5.50724
RightShoulder  4.92982 9.59468 31.6923
RightArm  -7.81594 -3.67049 38.6684
RightForeArm  3.88602 25.9787 5.37474
RightHand  -1.70175 5.07731 -19.0751
LeftUpLeg  -52.4076 6.57516 1.50759
LeftLeg  76.8444 0.733254 5.07929
LeftFoot  1.83462 -0.450536 3.79218
LeftToes  1.06246e-005 4.65855e-005 -8.18503e-006
